# xmcd
# 
# Track frame offsets:
#     150
#     22416
#     43264
#     61377
#     85013
#     105122
#     122566
# 
# Disc length: 1938
# 
# Revision: 0
# Processed by: cddbd v1.5.2PL0 Copyright (c) Steve Scherf et al.
# Submitted via: fre:ac v1.0.17
# 
DISCID=54079007
DTITLE=Various Artist - 3ミクロンのネジ
DYEAR=2014
DGENRE=
TTITLE0=にょロボてぃくす コットン&アヤメ - 恋するヴィニール人形
TTITLE1=にょロボてぃくす コットン&アヤメ - ラブ・ダメ男
TTITLE2=にょロボてぃくす コットン&アヤメ - 銀河ドライヴ '14
TTITLE3=にょロボてぃくす ユニカ&サギリ - 百年メロディー
TTITLE4=にょロボてぃくす ブラウニー&ソネット - 電気羊の夜
TTITLE5=にょロボてぃくす メルカ&フルカ - リハーサル・デイト
TTITLE6=にょロボてぃくす コットン・アヤメ・ユニカ・サギリ・ブラウニー・メルカ・フルカ・ソネット - 3ミクロンのネジ
EXTD=
EXTT0=
EXTT1=
EXTT2=
EXTT3=
EXTT4=
EXTT5=
EXTT6=
PLAYORDER=
